<?xml version="1.0" encoding="UTF-8" standalone="no"?>
<!-- Created with Inkscape (http://www.inkscape.org/) -->

<svg
   xmlns:dc="http://purl.org/dc/elements/1.1/"
   xmlns:cc="http://creativecommons.org/ns#"
   xmlns:rdf="http://www.w3.org/1999/02/22-rdf-syntax-ns#"
   xmlns:svg="http://www.w3.org/2000/svg"
   xmlns="http://www.w3.org/2000/svg"
   xmlns:sodipodi="http://sodipodi.sourceforge.net/DTD/sodipodi-0.dtd"
   xmlns:inkscape="http://www.inkscape.org/namespaces/inkscape"
   width="46"
   height="41"
   id="svg2"
   version="1.1"
   inkscape:version="0.48.3.1 r9886"
   sodipodi:docname="logo.svg"
   inkscape:export-filename="/home/stephan/programming/erlang/prittorrent/apps/ui/priv/static/logo.png"
   inkscape:export-xdpi="90"
   inkscape:export-ydpi="90">
  <defs
     id="defs4" />
  <sodipodi:namedview
     id="base"
     pagecolor="#ffffff"
     bordercolor="#666666"
     borderopacity="1.0"
     inkscape:pageopacity="0.0"
     inkscape:pageshadow="2"
     inkscape:zoom="8"
     inkscape:cx="11.20834"
     inkscape:cy="21.122768"
     inkscape:document-units="px"
     inkscape:current-layer="layer1"
     showgrid="true"
     fit-margin-top="0"
     fit-margin-left="0"
     fit-margin-right="0"
     fit-margin-bottom="0"
     inkscape:window-width="1916"
     inkscape:window-height="1057"
     inkscape:window-x="1440"
     inkscape:window-y="19"
     inkscape:window-maximized="0">
    <inkscape:grid
       type="xygrid"
       id="grid2985"
       empspacing="5"
       visible="true"
       enabled="true"
       snapvisiblegridlinesonly="true"
       originx="-0.30302787px"
       originy="4.754524px" />
  </sodipodi:namedview>
  <metadata
     id="metadata7">
    <rdf:RDF>
      <cc:Work
         rdf:about="">
        <dc:format>image/svg+xml</dc:format>
        <dc:type
           rdf:resource="http://purl.org/dc/dcmitype/StillImage" />
        <dc:title></dc:title>
      </cc:Work>
    </rdf:RDF>
  </metadata>
  <g
     inkscape:label="Layer 1"
     inkscape:groupmode="layer"
     id="layer1"
     transform="translate(-0.30302787,-451.1167)">
    <rect
       style="fill:#ff0000;fill-opacity:1;fill-rule:evenodd;stroke:none"
       id="rect2987"
       width="5.0000029"
       height="5.0000029"
       x="-82.757278"
       y="449.93518"
       transform="matrix(0.98144886,-0.19172409,0.19172409,0.98144886,0,0)" />
    <rect
       style="fill:#800000;fill-opacity:1;fill-rule:evenodd;stroke:none"
       id="rect2987-7"
       width="5.0000029"
       height="5.0000029"
       x="-76.757278"
       y="449.93518"
       transform="matrix(0.98144886,-0.19172409,0.19172409,0.98144886,0,0)" />
    <rect
       style="fill:#ff0000;fill-opacity:1;fill-rule:evenodd;stroke:none"
       id="rect2987-78"
       width="5.0000029"
       height="5.0000029"
       x="-88.757278"
       y="455.93518"
       transform="matrix(0.98144886,-0.19172409,0.19172409,0.98144886,0,0)" />
    <rect
       style="fill:#800000;fill-opacity:1;fill-rule:evenodd;stroke:none"
       id="rect2987-7-8"
       width="5.0000029"
       height="5.0000029"
       x="-82.757278"
       y="455.93518"
       transform="matrix(0.98144886,-0.19172409,0.19172409,0.98144886,0,0)" />
    <rect
       style="fill:#800000;fill-opacity:1;fill-rule:evenodd;stroke:none"
       id="rect2987-1"
       width="5.0000029"
       height="5.0000029"
       x="-76.757278"
       y="455.93518"
       transform="matrix(0.98144886,-0.19172409,0.19172409,0.98144886,0,0)" />
    <rect
       style="fill:#ff0000;fill-opacity:1;fill-rule:evenodd;stroke:none"
       id="rect2987-7-0"
       width="5.0000029"
       height="5.0000029"
       x="-70.757271"
       y="455.93518"
       transform="matrix(0.98144886,-0.19172409,0.19172409,0.98144886,0,0)" />
    <rect
       style="fill:#800000;fill-opacity:1;fill-rule:evenodd;stroke:none"
       id="rect2987-6"
       width="5.0000029"
       height="5.0000029"
       x="-64.757271"
       y="455.93518"
       transform="matrix(0.98144886,-0.19172409,0.19172409,0.98144886,0,0)" />
    <rect
       style="fill:#800000;fill-opacity:1;fill-rule:evenodd;stroke:none"
       id="rect2987-7-4"
       width="5.0000029"
       height="5.0000029"
       x="90.96698"
       y="456.53479"
       inkscape:transform-center-x="-22.098751"
       inkscape:transform-center-y="-11.922506"
       transform="matrix(0.99270462,0.12057174,-0.12057174,0.99270462,0,0)" />
    <rect
       style="fill:#ff0000;fill-opacity:1;fill-rule:evenodd;stroke:none"
       id="rect2987-5"
       width="5.0000029"
       height="5.0000029"
       x="-64.757271"
       y="449.93518"
       transform="matrix(0.98144886,-0.19172409,0.19172409,0.98144886,0,0)" />
    <rect
       style="fill:#800000;fill-opacity:1;fill-rule:evenodd;stroke:none"
       id="rect2987-7-9"
       width="5.0000029"
       height="5.0000029"
       x="-58.757259"
       y="449.93518"
       transform="matrix(0.98144886,-0.19172409,0.19172409,0.98144886,0,0)" />
    <rect
       style="fill:#800000;fill-opacity:1;fill-rule:evenodd;stroke:none"
       id="rect2987-54"
       width="5.0000029"
       height="5.0000029"
       x="90.96698"
       y="462.53479"
       inkscape:transform-center-x="-21.375321"
       inkscape:transform-center-y="-5.9662786"
       transform="matrix(0.99270462,0.12057174,-0.12057174,0.99270462,0,0)" />
    <rect
       style="fill:#550000;fill-opacity:1;fill-rule:evenodd;stroke:none"
       id="rect2987-7-6"
       width="5.0000029"
       height="5.0000029"
       x="96.96698"
       y="462.53479"
       inkscape:transform-center-x="-27.331548"
       inkscape:transform-center-y="-5.2428481"
       transform="matrix(0.99270462,0.12057174,-0.12057174,0.99270462,0,0)" />
    <rect
       style="fill:#800000;fill-opacity:1;fill-rule:evenodd;stroke:none"
       id="rect2987-7-6-5"
       width="5.0000029"
       height="5.0000029"
       x="96.96698"
       y="456.53479"
       inkscape:transform-center-x="-28.054979"
       inkscape:transform-center-y="-11.199076"
       transform="matrix(0.99270462,0.12057174,-0.12057174,0.99270462,0,0)" />
    <rect
       style="fill:#800000;fill-opacity:1;fill-rule:evenodd;stroke:none"
       id="rect2987-78-4"
       width="5.0000029"
       height="5.0000029"
       x="-88.757278"
       y="461.93518"
       transform="matrix(0.98144886,-0.19172409,0.19172409,0.98144886,0,0)" />
    <rect
       style="fill:#800000;fill-opacity:1;fill-rule:evenodd;stroke:none"
       id="rect2987-7-8-1"
       width="5.0000029"
       height="5.0000029"
       x="-82.757278"
       y="461.93518"
       transform="matrix(0.98144886,-0.19172409,0.19172409,0.98144886,0,0)" />
    <rect
       style="fill:#800000;fill-opacity:1;fill-rule:evenodd;stroke:none"
       id="rect2987-1-0"
       width="5.0000029"
       height="5.0000029"
       x="-76.757278"
       y="461.93518"
       transform="matrix(0.98144886,-0.19172409,0.19172409,0.98144886,0,0)" />
    <rect
       style="fill:#800000;fill-opacity:1;fill-rule:evenodd;stroke:none"
       id="rect2987-7-0-1"
       width="5.0000029"
       height="5.0000029"
       x="-70.757271"
       y="461.93518"
       transform="matrix(0.98144886,-0.19172409,0.19172409,0.98144886,0,0)" />
    <rect
       style="fill:#800000;fill-opacity:1;fill-rule:evenodd;stroke:none"
       id="rect2987-6-5"
       width="5.0000029"
       height="5.0000029"
       x="84.96698"
       y="462.53479"
       inkscape:transform-center-x="-15.419093"
       inkscape:transform-center-y="-6.689709"
       transform="matrix(0.99270462,0.12057174,-0.12057174,0.99270462,0,0)" />
    <rect
       style="fill:#550000;fill-opacity:1;fill-rule:evenodd;stroke:none"
       id="rect2987-54-0"
       width="5.0000029"
       height="5.0000029"
       x="90.96698"
       y="468.53479"
       inkscape:transform-center-x="-20.65189"
       inkscape:transform-center-y="-0.010050872"
       transform="matrix(0.99270462,0.12057174,-0.12057174,0.99270462,0,0)" />
    <rect
       style="fill:#800000;fill-opacity:1;fill-rule:evenodd;stroke:none"
       id="rect2987-7-8-1-5"
       width="5.0000029"
       height="5.0000029"
       x="-82.757278"
       y="467.93518"
       transform="matrix(0.98144886,-0.19172409,0.19172409,0.98144886,0,0)" />
    <rect
       style="fill:#800000;fill-opacity:1;fill-rule:evenodd;stroke:none"
       id="rect2987-1-0-9"
       width="5.0000029"
       height="5.0000029"
       x="72.966965"
       y="468.53479"
       inkscape:transform-center-x="-2.7831916"
       inkscape:transform-center-y="-2.180344"
       transform="matrix(0.99270462,0.12057174,-0.12057174,0.99270462,0,0)" />
    <rect
       style="fill:#800000;fill-opacity:1;fill-rule:evenodd;stroke:none"
       id="rect2987-7-0-1-4"
       width="5.0000029"
       height="5.0000029"
       x="78.966965"
       y="468.53479"
       inkscape:transform-center-x="-8.7394194"
       inkscape:transform-center-y="-1.4569135"
       transform="matrix(0.99270462,0.12057174,-0.12057174,0.99270462,0,0)" />
    <rect
       style="fill:#800000;fill-opacity:1;fill-rule:evenodd;stroke:none"
       id="rect2987-6-5-8"
       width="5.0000029"
       height="5.0000029"
       x="84.96698"
       y="468.53479"
       inkscape:transform-center-x="-14.695663"
       inkscape:transform-center-y="-0.73348134"
       transform="matrix(0.99270462,0.12057174,-0.12057174,0.99270462,0,0)" />
    <rect
       style="fill:#800000;fill-opacity:1;fill-rule:evenodd;stroke:none"
       id="rect2987-1-0-9-3"
       width="5.0000029"
       height="5.0000029"
       x="72.966965"
       y="474.53479"
       inkscape:transform-center-x="-2.0597612"
       inkscape:transform-center-y="3.7758837"
       transform="matrix(0.99270462,0.12057174,-0.12057174,0.99270462,0,0)" />
    <rect
       style="fill:#800000;fill-opacity:1;fill-rule:evenodd;stroke:none"
       id="rect2987-7-0-1-4-7"
       width="5.0000029"
       height="5.0000029"
       x="78.966965"
       y="474.53479"
       inkscape:transform-center-x="-8.015989"
       inkscape:transform-center-y="4.4993141"
       transform="matrix(0.99270462,0.12057174,-0.12057174,0.99270462,0,0)" />
    <rect
       style="fill:#550000;fill-opacity:1;fill-rule:evenodd;stroke:none"
       id="rect2987-6-5-8-8"
       width="5.0000029"
       height="5.0000029"
       x="84.96698"
       y="474.53479"
       inkscape:transform-center-x="-13.972231"
       inkscape:transform-center-y="5.2227465"
       transform="matrix(0.99270462,0.12057174,-0.12057174,0.99270462,0,0)" />
    <rect
       style="fill:#550000;fill-opacity:1;fill-rule:evenodd;stroke:none"
       id="rect2987-54-0-8"
       width="5.0000029"
       height="5.0000029"
       x="78.966965"
       y="480.53482"
       inkscape:transform-center-x="-7.2925549"
       inkscape:transform-center-y="10.455573"
       transform="matrix(0.99270462,0.12057174,-0.12057174,0.99270462,0,0)" />
  </g>
</svg>
