<?xml version="1.0" encoding="UTF-8" standalone="no"?>
<!-- Created with Inkscape (http://www.inkscape.org/) -->

<svg
   xmlns:dc="http://purl.org/dc/elements/1.1/"
   xmlns:cc="http://creativecommons.org/ns#"
   xmlns:rdf="http://www.w3.org/1999/02/22-rdf-syntax-ns#"
   xmlns:svg="http://www.w3.org/2000/svg"
   xmlns="http://www.w3.org/2000/svg"
   xmlns:sodipodi="http://sodipodi.sourceforge.net/DTD/sodipodi-0.dtd"
   xmlns:inkscape="http://www.inkscape.org/namespaces/inkscape"
   width="12"
   height="16"
   id="svg2"
   version="1.1"
   inkscape:version="0.48.1 r9760"
   sodipodi:docname="torrent.svg"
   inkscape:export-filename="/home/stephan/programming/erlang/prittorrent/apps/ui/priv/static/torrent.png"
   inkscape:export-xdpi="98.690002"
   inkscape:export-ydpi="98.690002">
  <defs
     id="defs4">
    <linearGradient
       id="linearGradient3762">
      <stop
         style="stop-color:#008000;stop-opacity:1;"
         offset="0"
         id="stop3764" />
      <stop
         style="stop-color:#008000;stop-opacity:0;"
         offset="1"
         id="stop3766" />
    </linearGradient>
  </defs>
  <sodipodi:namedview
     id="base"
     pagecolor="#ffffff"
     bordercolor="#666666"
     borderopacity="1.0"
     inkscape:pageopacity="0.0"
     inkscape:pageshadow="2"
     inkscape:zoom="32"
     inkscape:cx="7.6283048"
     inkscape:cy="9.0288098"
     inkscape:document-units="px"
     inkscape:current-layer="layer1"
     showgrid="true"
     inkscape:window-width="877"
     inkscape:window-height="1057"
     inkscape:window-x="2479"
     inkscape:window-y="19"
     inkscape:window-maximized="0">
    <inkscape:grid
       type="xygrid"
       id="grid2985"
       empspacing="5"
       visible="true"
       enabled="true"
       snapvisiblegridlinesonly="true" />
  </sodipodi:namedview>
  <metadata
     id="metadata7">
    <rdf:RDF>
      <cc:Work
         rdf:about="">
        <dc:format>image/svg+xml</dc:format>
        <dc:type
           rdf:resource="http://purl.org/dc/dcmitype/StillImage" />
        <dc:title></dc:title>
      </cc:Work>
    </rdf:RDF>
  </metadata>
  <g
     inkscape:label="Layer 1"
     inkscape:groupmode="layer"
     id="layer1"
     transform="translate(0,-1036.3622)">
    <path
       style="fill:#ffffff;fill-opacity:1;fill-rule:evenodd;stroke:#008000;stroke-linejoin:round;stroke-opacity:1"
       d="m 1,1037.3622 5,0 5,4 0,10 -10,0 z"
       id="rect3233"
       inkscape:connector-curvature="0"
       sodipodi:nodetypes="cccccc" />
    <path
       style="fill:#ffffff;fill-opacity:1;fill-rule:evenodd;stroke:#008000;stroke-width:0.80000001;stroke-linecap:round;stroke-linejoin:round;stroke-miterlimit:4;stroke-opacity:1;stroke-dasharray:none;stroke-dashoffset:0"
       d="m 6,1037.3622 5,4 -5,0 z"
       id="rect4004"
       inkscape:connector-curvature="0"
       sodipodi:nodetypes="cccc" />
    <path
       sodipodi:nodetypes="ccccc"
       inkscape:connector-curvature="0"
       id="rect2987"
       d="m 3.5,1042.8622 0.9999999,0 0,1 -0.9999999,0 z"
       style="fill:#3fff3f;fill-opacity:1;fill-rule:evenodd;stroke:none" />
    <path
       sodipodi:nodetypes="ccccc"
       inkscape:connector-curvature="0"
       id="rect2987-7"
       d="m 4.4999999,1042.8622 0.9999999,0 0,1 -0.9999999,0 z"
       style="fill:#00c000;fill-opacity:1;fill-rule:evenodd;stroke:none" />
    <path
       sodipodi:nodetypes="ccccc"
       inkscape:connector-curvature="0"
       id="rect2987-7-6"
       d="m 8.4999999,1044.8622 1,0 0,1 -1,0 z"
       style="fill:#009f00;fill-opacity:1;fill-rule:evenodd;stroke:none" />
    <path
       sodipodi:nodetypes="ccccc"
       inkscape:connector-curvature="0"
       id="rect2987-7-6-1"
       d="m 7.4999999,1045.8622 1,0 0,1 -1,0 z"
       style="fill:#009f00;fill-opacity:1;fill-rule:evenodd;stroke:none" />
    <path
       sodipodi:nodetypes="ccccc"
       inkscape:connector-curvature="0"
       id="rect2987-7-6-19"
       d="m 6.4999999,1046.8622 1,0 0,1 -1,0 z"
       style="fill:#009f00;fill-opacity:1;fill-rule:evenodd;stroke:none" />
    <path
       sodipodi:nodetypes="ccccc"
       inkscape:connector-curvature="0"
       id="rect2987-7-6-3"
       d="m 5.4999999,1047.8622 1,0 0,1 -1,0 z"
       style="fill:#009f00;fill-opacity:1;fill-rule:evenodd;stroke:none" />
    <path
       sodipodi:nodetypes="ccccc"
       inkscape:connector-curvature="0"
       id="rect2987-1"
       d="m 2.5,1043.8622 0.9999999,0 0,1 -0.9999999,0 z"
       style="fill:#3fff3f;fill-opacity:1;fill-rule:evenodd;stroke:none" />
    <path
       sodipodi:nodetypes="ccccc"
       inkscape:connector-curvature="0"
       id="rect2987-7-2"
       d="m 3.5,1043.8622 0.9999999,0 0,1 -0.9999999,0 z"
       style="fill:#00c000;fill-opacity:1;fill-rule:evenodd;stroke:none" />
    <path
       sodipodi:nodetypes="ccccc"
       inkscape:connector-curvature="0"
       id="rect2987-7-8"
       d="m 4.5,1043.8622 0.9999999,0 0,1 -0.9999999,0 z"
       style="fill:#00c000;fill-opacity:1;fill-rule:evenodd;stroke:none" />
    <path
       sodipodi:nodetypes="ccccc"
       inkscape:connector-curvature="0"
       id="rect2987-7-9"
       d="m 6.5,1043.8622 0.9999999,0 0,1 -0.9999999,0 z"
       style="fill:#00c000;fill-opacity:1;fill-rule:evenodd;stroke:none" />
    <path
       sodipodi:nodetypes="ccccc"
       inkscape:connector-curvature="0"
       id="rect2987-7-25"
       d="m 7.5,1043.8622 0.9999999,0 0,1 -0.9999999,0 z"
       style="fill:#00c000;fill-opacity:1;fill-rule:evenodd;stroke:none" />
    <path
       sodipodi:nodetypes="ccccc"
       inkscape:connector-curvature="0"
       id="rect2987-7-95"
       d="m 8.4999999,1043.8622 1,0 0,1 -1,0 z"
       style="fill:#00c000;fill-opacity:1;fill-rule:evenodd;stroke:none" />
    <path
       sodipodi:nodetypes="ccccc"
       inkscape:connector-curvature="0"
       id="rect2987-7-7"
       d="m 7.5,1042.8622 0.9999999,0 0,1 -0.9999999,0 z"
       style="fill:#00c000;fill-opacity:1;fill-rule:evenodd;stroke:none" />
    <path
       sodipodi:nodetypes="ccccc"
       inkscape:connector-curvature="0"
       id="rect2987-7-77"
       d="m 5.5,1044.8622 0.9999999,0 0,1 -0.9999999,0 z"
       style="fill:#00c000;fill-opacity:1;fill-rule:evenodd;stroke:none" />
    <path
       sodipodi:nodetypes="ccccc"
       inkscape:connector-curvature="0"
       id="rect2987-7-259"
       d="m 6.5,1044.8622 0.9999999,0 0,1 -0.9999999,0 z"
       style="fill:#00c000;fill-opacity:1;fill-rule:evenodd;stroke:none" />
    <path
       sodipodi:nodetypes="ccccc"
       inkscape:connector-curvature="0"
       id="rect2987-7-64"
       d="m 7.5,1044.8622 0.9999999,0 0,1 -0.9999999,0 z"
       style="fill:#00c000;fill-opacity:1;fill-rule:evenodd;stroke:none" />
    <path
       sodipodi:nodetypes="ccccc"
       inkscape:connector-curvature="0"
       id="rect2987-7-85"
       d="m 6.5,1045.8622 0.9999999,0 0,1 -0.9999999,0 z"
       style="fill:#00c000;fill-opacity:1;fill-rule:evenodd;stroke:none" />
    <path
       sodipodi:nodetypes="ccccc"
       inkscape:connector-curvature="0"
       id="rect2987-7-83"
       d="m 5.5,1045.8622 0.9999999,0 0,1 -0.9999999,0 z"
       style="fill:#00c000;fill-opacity:1;fill-rule:evenodd;stroke:none" />
    <path
       sodipodi:nodetypes="ccccc"
       inkscape:connector-curvature="0"
       id="rect2987-7-89"
       d="m 5.5,1046.8622 0.9999999,0 0,1 -0.9999999,0 z"
       style="fill:#00c000;fill-opacity:1;fill-rule:evenodd;stroke:none" />
    <path
       sodipodi:nodetypes="ccccc"
       inkscape:connector-curvature="0"
       id="rect2987-7-88"
       d="m 4.5,1046.8622 0.9999999,0 0,1 -0.9999999,0 z"
       style="fill:#00c000;fill-opacity:1;fill-rule:evenodd;stroke:none" />
    <path
       sodipodi:nodetypes="ccccc"
       inkscape:connector-curvature="0"
       id="rect2987-7-21"
       d="m 4.5,1044.8622 0.9999999,0 0,1 -0.9999999,0 z"
       style="fill:#00c000;fill-opacity:1;fill-rule:evenodd;stroke:none" />
    <path
       sodipodi:nodetypes="ccccc"
       inkscape:connector-curvature="0"
       id="rect2987-7-70"
       d="m 4.5,1045.8622 0.9999999,0 0,1 -0.9999999,0 z"
       style="fill:#00c000;fill-opacity:1;fill-rule:evenodd;stroke:none" />
    <path
       sodipodi:nodetypes="ccccc"
       inkscape:connector-curvature="0"
       id="rect2987-7-0"
       d="m 3.4999999,1044.8622 0.9999999,0 0,1 -0.9999999,0 z"
       style="fill:#00c000;fill-opacity:1;fill-rule:evenodd;stroke:none" />
    <path
       sodipodi:nodetypes="ccccc"
       inkscape:connector-curvature="0"
       id="rect2987-7-97"
       d="m 2.4999999,1044.8622 0.9999999,0 0,1 -0.9999999,0 z"
       style="fill:#00c000;fill-opacity:1;fill-rule:evenodd;stroke:none" />
    <path
       sodipodi:nodetypes="ccccc"
       inkscape:connector-curvature="0"
       id="rect2987-7-970"
       d="m 3.5,1045.8622 0.9999999,0 0,1 -0.9999999,0 z"
       style="fill:#00c000;fill-opacity:1;fill-rule:evenodd;stroke:none" />
    <path
       sodipodi:nodetypes="ccccc"
       inkscape:connector-curvature="0"
       id="rect2987-1-8"
       d="m 5.5,1043.8622 0.9999999,0 0,1 -0.9999999,0 z"
       style="fill:#3fff3f;fill-opacity:1;fill-rule:evenodd;stroke:none" />
    <path
       sodipodi:nodetypes="ccccc"
       inkscape:connector-curvature="0"
       id="rect2987-1-9"
       d="m 6.5,1042.8622 0.9999999,0 0,1 -0.9999999,0 z"
       style="fill:#3fff3f;fill-opacity:1;fill-rule:evenodd;stroke:none" />
  </g>
</svg>
